<?xml version="1.0" standalone="no"?><!DOCTYPE svg PUBLIC "-//W3C//DTD SVG 1.1//EN" "http://www.w3.org/Graphics/SVG/1.1/DTD/svg11.dtd"><svg t="1784636072568" class="icon" viewBox="0 0 1024 1024" version="1.1" xmlns="http://www.w3.org/2000/svg" p-id="23161" xmlns:xlink="http://www.w3.org/1999/xlink" width="200" height="200"><path d="M334.936069 644.312148c19.183993-16.791993 30.191988-40.191984 30.191988-64.199975V578.400174c0-9.327996-7.599997-16.879993-16.983993-16.879993h-1.08V518.240198c0-9.327996-7.599997-16.879993-16.983993-16.879994h-8.495997V187.776327l36.391986-48.039982a16.799993 16.799993 0 0 0 2.535999-15.519994l-37.439985-111.239956A16.975993 16.975993 0 0 0 306.96808 1.440399H232.080109c-7.311997 0-13.791995 4.639998-16.111993 11.535996L178.53613 124.216351a16.799993 16.799993 0 0 0 2.535999 15.519994l36.391986 48.039982v138.159946c0 9.327996 7.599997 16.887993 16.983993 16.887993a16.935993 16.935993 0 0 0 16.983994-16.879993V182.128329a16.799993 16.799993 0 0 0-3.415999-10.159996l-34.431986-45.455982 30.719988-91.295965h50.43198l30.719988 91.295965-34.431987 45.455982a16.831993 16.831993 0 0 0-3.415998 10.159996V501.360204H251.432102V383.36025c0-9.327996-7.599997-16.879993-16.983994-16.879993a16.935993 16.935993 0 0 0-16.983993 16.879993v117.999954H208.960118a16.935993 16.935993 0 0 0-16.983993 16.879994v43.263983h-1.072a16.935993 16.935993 0 0 0-16.983993 16.879993v1.727999c0 24.007991 10.999996 47.407981 30.183988 64.199975 4.319998 3.775999 6.799997 9.215996 6.799998 14.927994 0 5.303998-2.079999 10.295996-5.855998 14.055995C184.960128 693.248129 173.912132 718.816119 173.912132 745.280109v169.255934c0 52.39998 42.895983 95.039963 95.607963 95.039963 52.719979 0 95.599963-42.639983 95.599962-95.039963V745.280109c0-26.46399-11.055996-52.03198-31.119987-71.983972a19.687992 19.687992 0 0 1-5.855998-14.055995c0-5.711998 2.479999-11.151996 6.799997-14.927994zM225.952112 535.120191h87.143966v26.37599H225.952112v-26.37599z m86.535966 83.839967a53.543979 53.543979 0 0 0-18.319993 40.279984c0 14.327994 5.615998 27.799989 15.807994 37.935986 13.655995 13.575995 21.175992 30.655988 21.175992 48.103981v169.255934c0 33.783987-27.647989 61.263976-61.623976 61.263976-33.983987 0-61.631976-27.479989-61.631976-61.263976V745.288109c0-17.447993 7.519997-34.535987 21.175992-48.111981a53.151979 53.151979 0 0 0 15.807993-37.935986 53.535979 53.535979 0 0 0-18.319993-40.279984c-7.607997-6.655997-13.135995-14.871994-16.119993-23.679991h118.175954c-2.991999 8.807997-8.519997 17.023993-16.127994 23.679991zM843.183871 821.520079c-11.983995-37.839985-37.791985-69.431973-72.679972-88.959965-28.703989-16.055994-46.535982-45.823982-46.535982-77.66397V307.99228c0-26.999989 7.119997-54.831979 20.567992-80.495969a155.199939 155.199939 0 0 0 17.647993-71.815972c0-42.511983-16.911993-82.215968-47.631981-111.799956C683.839933 14.288394 643.359949-1.2636 600.495965 0.0804a16.999993 16.999993 0 0 0-14.143994 8.367997 16.799993 16.799993 0 0 0-0.368 16.351993l41.111984 77.91997a43.951983 43.951983 0 0 1 3.087999 33.919987 44.247983 44.247983 0 0 1-21.943992 26.151989 44.719983 44.719983 0 0 1-34.111986 3.071999 44.399983 44.399983 0 0 1-26.30399-21.815991l-40.639984-77.03197a17.023993 17.023993 0 0 0-28.831989-2.015999 154.02394 154.02394 0 0 0-29.111988 80.431968c-3.903998 60.415976 26.57599 116.359955 79.551968 145.999943 23.999991 13.431995 46.535982 93.367964 46.535982 133.959948v52.527979c0 9.327996 7.599997 16.887993 16.991994 16.887994a16.935993 16.935993 0 0 0 16.983993-16.879994v-52.535979c0-35.159986-19.631992-138.639946-63.839975-163.383936-41.495984-23.223991-65.383974-67.063974-62.319976-114.407956a119.375953 119.375953 0 0 1 8.543997-37.231985l26.03999 49.367981a78.087969 78.087969 0 0 0 46.279982 38.367985 78.623969 78.623969 0 0 0 59.999976-5.407998 77.85597 77.85597 0 0 0 38.599985-45.999982 77.32797 77.32797 0 0 0-5.439998-59.655977l-26.783989-50.79198a121.919952 121.919952 0 0 1 60.527976 31.887987c24.047991 23.167991 37.295985 54.263979 37.295986 87.551966 0 19.831992-4.639998 38.735985-13.799995 56.191978-15.975994 30.471988-24.41599 63.703975-24.415991 96.111963v346.903864c0 44.023983 24.45599 85.063967 63.839976 107.103958 27.335989 15.295994 47.559981 40.039984 56.943977 69.663973a16.983993 16.983993 0 0 0 21.303992 11.039996 16.863993 16.863993 0 0 0 11.103996-21.183992z" fill="#000000" p-id="23162"></path><path d="M834.191874 860.640064a16.943993 16.943993 0 0 0-18.039993 15.759994 119.319953 119.319953 0 0 1-8.543996 37.231985l-26.04799-49.367981c-20.159992-38.223985-67.839974-53.007979-106.279959-32.959987-38.447985 20.039992-53.319979 67.439974-33.159987 105.655959l26.79199 50.79198a121.935952 121.935952 0 0 1-60.527977-31.887987c-24.055991-23.175991-37.303985-54.263979-37.303985-87.551966 0-19.831992 4.639998-38.735985 13.799995-56.199978 15.983994-30.463988 24.42399-63.695975 24.42399-96.103963V545.448187c0-9.319996-7.599997-16.879993-16.983993-16.879993a16.935993 16.935993 0 0 0-16.983994 16.879993v170.551933c0 26.991989-7.119997 54.823979-20.575992 80.495969a155.199939 155.199939 0 0 0-17.647993 71.807972c0 42.511983 16.911993 82.215968 47.623982 111.799956 29.495988 28.415989 68.015973 43.887983 108.959957 43.887983 1.695999 0 3.399999-0.032 5.103998-0.08a16.999993 16.999993 0 0 0 14.143995-8.367997c2.943999-5.031998 3.079999-11.199996 0.367999-16.359993l-41.111984-77.91997c-11.455996-21.727992-2.999999-48.671981 18.855993-60.071976a44.695983 44.695983 0 0 1 34.111987-3.071999 44.399983 44.399983 0 0 1 26.303989 21.815991l40.639985 77.03197a17.023993 17.023993 0 0 0 28.823988 2.023999 154.01594 154.01594 0 0 0 29.119989-80.439968 16.919993 16.919993 0 0 0-15.863994-17.919993z" fill="#000000" p-id="23163"></path></svg>