<?xml version="1.0" standalone="no"?><!DOCTYPE svg PUBLIC "-//W3C//DTD SVG 1.1//EN" "http://www.w3.org/Graphics/SVG/1.1/DTD/svg11.dtd"><svg t="1784635960007" class="icon" viewBox="0 0 1024 1024" version="1.1" xmlns="http://www.w3.org/2000/svg" p-id="15119" xmlns:xlink="http://www.w3.org/1999/xlink" width="200" height="200"><path d="M355.68 624a13.6 13.6 0 0 0-3.68 0h-128a16 16 0 0 0-16 16v272a16 16 0 0 0 16 16h128a16 16 0 0 0 16-16V640a16 16 0 0 0-12.32-16zM336 896h-96V656h96z" fill="#231F20" p-id="15120"></path><path d="M240 656v240h32v-48a16 16 0 0 1 32 0v48h32V656z m48 144a16 16 0 1 1 16-16 16 16 0 0 1-16 16z" fill="#231F20" opacity=".5" p-id="15121"></path><path d="M240 608v336a16 16 0 0 1-16 16H80a16 16 0 0 1 0-32h128V624H80a16 16 0 0 1 0-32h144a16 16 0 0 1 16 16zM304 896v16a16 16 0 0 1-32 0v-16z" fill="#231F20" p-id="15122"></path><path d="M640 304h-48v32h48a16 16 0 0 0 0-32z m0 0h-48v32h48a16 16 0 0 0 0-32z m0 0h-48v32h48a16 16 0 0 0 0-32z m16 64h-64v32h64a16 16 0 0 0 0-32z m0 0h-64v32h64a16 16 0 0 0 0-32z m-16-64h-48v32h48a16 16 0 0 0 0-32z m0 0h-48v32h48a16 16 0 0 0 0-32z m16 64h-64v32h64a16 16 0 0 0 0-32z m0 0h-64v32h64a16 16 0 0 0 0-32z m0-48a16 16 0 0 0-16-16h-48v32h48a16 16 0 0 0 16-16zM624 144a208 208 0 1 0 208 208A208 208 0 0 0 624 144z m32 288v16a16 16 0 0 1-32 0v-16h-16v16a16 16 0 0 1-32 0v-16h-16a16 16 0 0 1 0-32v-96a16 16 0 0 1 0-32h16v-16a16 16 0 0 1 32 0v16h16v-16a16 16 0 0 1 32 0v18.88A48 48 0 0 1 688 320a48.96 48.96 0 0 1-6.08 23.52A48 48 0 0 1 656 432z m0-64h-64v32h64a16 16 0 0 0 0-32z m0-48a16 16 0 0 0-16-16h-48v32h48a16 16 0 0 0 16-16z m-16-16h-48v32h48a16 16 0 0 0 0-32z m16 64h-64v32h64a16 16 0 0 0 0-32z m0 0h-64v32h64a16 16 0 0 0 0-32z m-16-64h-48v32h48a16 16 0 0 0 0-32z m0 0h-48v32h48a16 16 0 0 0 0-32z m16 64h-64v32h64a16 16 0 0 0 0-32z m0 0h-64v32h64a16 16 0 0 0 0-32z m-16-64h-48v32h48a16 16 0 0 0 0-32z m0 0h-48v32h48a16 16 0 0 0 0-32z" fill="#231F20" opacity=".5" p-id="15123"></path><path d="M624 64a288 288 0 0 0-180.48 512 273.6 273.6 0 0 0 44.96 29.76A16 16 0 0 0 496 608h125.28a35.68 35.68 0 0 1 19.04 5.44 34.72 34.72 0 0 1 7.52 6.24 32 32 0 0 1 5.6 8 16 16 0 0 0 14.24 8.8h2.56q8.8-1.44 17.28-3.36a280.48 280.48 0 0 0 41.76-12.8A288 288 0 0 0 624 64z m51.52 538.72l-3.2-3.84-0.32-0.96a64.8 64.8 0 0 0-12.8-10.88 65.76 65.76 0 0 0-21.44-9.12 69.92 69.92 0 0 0-8-1.44 65.12 65.12 0 0 0-8 0h-121.76a256 256 0 1 1 176 26.72z" fill="#231F20" p-id="15124"></path><path d="M725.44 768h16a39.04 39.04 0 0 0 34.4-16 73.6 73.6 0 0 1 6.24-6.88A80 80 0 0 1 725.44 768zM688 635.52a14.08 14.08 0 0 0 0-2.56q-8.48 1.92-17.28 3.36h-2.56a16 16 0 0 1-14.24-8.8 24 24 0 0 1 2.4 10.08 30.88 30.88 0 0 1-9.28 24.8A32 32 0 0 1 624 672h-48a46.72 46.72 0 0 0-33.76 14.08 48 48 0 0 0-14.24 38.24A49.44 49.44 0 0 0 577.76 768h42.4a16 16 0 0 1-14.72-9.92 16 16 0 0 1 3.36-17.44l4.64-4.64h-35.68a17.12 17.12 0 0 1-17.6-14.72 15.04 15.04 0 0 1 4.8-12.64A14.88 14.88 0 0 1 576 704h48a62.88 62.88 0 0 0 27.84-6.4l29.76-29.76a60.8 60.8 0 0 0 6.4-32.32zM725.44 768h16a39.04 39.04 0 0 0 34.4-16 73.6 73.6 0 0 1 6.24-6.88A80 80 0 0 1 725.44 768zM688 635.52a14.08 14.08 0 0 0 0-2.56q-8.48 1.92-17.28 3.36h-2.56a16 16 0 0 1-14.24-8.8 24 24 0 0 1 2.4 10.08 30.88 30.88 0 0 1-9.28 24.8A32 32 0 0 1 624 672h-48a46.72 46.72 0 0 0-33.76 14.08 48 48 0 0 0-14.24 38.24A49.44 49.44 0 0 0 577.76 768h42.4a16 16 0 0 1-14.72-9.92 16 16 0 0 1 3.36-17.44l4.64-4.64h-35.68a17.12 17.12 0 0 1-17.6-14.72 15.04 15.04 0 0 1 4.8-12.64A14.88 14.88 0 0 1 576 704h48a62.88 62.88 0 0 0 27.84-6.4l29.76-29.76a60.8 60.8 0 0 0 6.4-32.32zM725.44 768h16a39.04 39.04 0 0 0 34.4-16 73.6 73.6 0 0 1 6.24-6.88A80 80 0 0 1 725.44 768zM688 635.52a14.08 14.08 0 0 0 0-2.56q-8.48 1.92-17.28 3.36h-2.56a16 16 0 0 1-14.24-8.8 24 24 0 0 1 2.4 10.08 30.88 30.88 0 0 1-9.28 24.8A32 32 0 0 1 624 672h-48a46.72 46.72 0 0 0-33.76 14.08 48 48 0 0 0-14.24 38.24A49.44 49.44 0 0 0 577.76 768h42.4a16 16 0 0 1-14.72-9.92 16 16 0 0 1 3.36-17.44l4.64-4.64h-35.68a17.12 17.12 0 0 1-17.6-14.72 15.04 15.04 0 0 1 4.8-12.64A14.88 14.88 0 0 1 576 704h48a62.88 62.88 0 0 0 27.84-6.4l29.76-29.76a60.8 60.8 0 0 0 6.4-32.32zM725.44 768h16a39.04 39.04 0 0 0 34.4-16 73.6 73.6 0 0 1 6.24-6.88A80 80 0 0 1 725.44 768zM688 635.52a14.08 14.08 0 0 0 0-2.56q-8.48 1.92-17.28 3.36h-2.56a16 16 0 0 1-14.24-8.8 24 24 0 0 1 2.4 10.08 30.88 30.88 0 0 1-9.28 24.8A32 32 0 0 1 624 672h-48a46.72 46.72 0 0 0-33.76 14.08 48 48 0 0 0-14.24 38.24A49.44 49.44 0 0 0 577.76 768h42.4a16 16 0 0 1-14.72-9.92 16 16 0 0 1 3.36-17.44l4.64-4.64h-35.68a17.12 17.12 0 0 1-17.6-14.72 15.04 15.04 0 0 1 4.8-12.64A14.88 14.88 0 0 1 576 704h48a62.88 62.88 0 0 0 27.84-6.4l29.76-29.76a60.8 60.8 0 0 0 6.4-32.32zM725.44 768h16a39.04 39.04 0 0 0 34.4-16 73.6 73.6 0 0 1 6.24-6.88A80 80 0 0 1 725.44 768zM688 635.52a14.08 14.08 0 0 0 0-2.56q-8.48 1.92-17.28 3.36h-2.56a16 16 0 0 1-14.24-8.8 24 24 0 0 1 2.4 10.08 30.88 30.88 0 0 1-9.28 24.8A32 32 0 0 1 624 672h-48a46.72 46.72 0 0 0-33.76 14.08 48 48 0 0 0-14.24 38.24A49.44 49.44 0 0 0 577.76 768h42.4a16 16 0 0 1-14.72-9.92 16 16 0 0 1 3.36-17.44l4.64-4.64h-35.68a17.12 17.12 0 0 1-17.6-14.72 15.04 15.04 0 0 1 4.8-12.64A14.88 14.88 0 0 1 576 704h48a62.88 62.88 0 0 0 27.84-6.4l29.76-29.76a60.8 60.8 0 0 0 6.4-32.32zM725.44 768h16a39.04 39.04 0 0 0 34.4-16 73.6 73.6 0 0 1 6.24-6.88A80 80 0 0 1 725.44 768zM688 635.52a14.08 14.08 0 0 0 0-2.56q-8.48 1.92-17.28 3.36h-2.56a16 16 0 0 1-14.24-8.8 24 24 0 0 1 2.4 10.08 30.88 30.88 0 0 1-9.28 24.8A32 32 0 0 1 624 672h-48a46.72 46.72 0 0 0-33.76 14.08 48 48 0 0 0-14.24 38.24A49.44 49.44 0 0 0 577.76 768h42.4a16 16 0 0 1-14.72-9.92 16 16 0 0 1 3.36-17.44l4.64-4.64h-35.68a17.12 17.12 0 0 1-17.6-14.72 15.04 15.04 0 0 1 4.8-12.64A14.88 14.88 0 0 1 576 704h48a62.88 62.88 0 0 0 27.84-6.4l29.76-29.76a60.8 60.8 0 0 0 6.4-32.32zM725.44 768h16a39.04 39.04 0 0 0 34.4-16 73.6 73.6 0 0 1 6.24-6.88A80 80 0 0 1 725.44 768zM688 632.96q-8.48 1.92-17.28 3.36h-2.56a16 16 0 0 1-14.24-8.8 24 24 0 0 1 2.4 10.08 30.88 30.88 0 0 1-9.28 24.8A32 32 0 0 1 624 672h-48a46.72 46.72 0 0 0-33.76 14.08 48 48 0 0 0-14.24 38.24A49.44 49.44 0 0 0 577.76 768h42.4a16 16 0 0 1-14.72-9.92 16 16 0 0 1 3.36-17.44l4.64-4.64h-35.68a17.12 17.12 0 0 1-17.6-14.72 15.04 15.04 0 0 1 4.8-12.64A14.88 14.88 0 0 1 576 704h48a62.88 62.88 0 0 0 27.84-6.4l29.76-29.76a60.8 60.8 0 0 0 6.24-32 14.08 14.08 0 0 0 0.16-2.88z m256 0a60.32 60.32 0 0 0-44.16-20.16 64.96 64.96 0 0 0-33.76 8 70.72 70.72 0 0 0-16 11.36L825.44 656l-66.08 66.08c-3.2 3.36-5.76 6.24-7.84 8.8-4.64 5.28-4.64 5.28-10.08 5.28H577.76a17.12 17.12 0 0 1-17.6-14.72 15.04 15.04 0 0 1 4.8-12.64 14.88 14.88 0 0 1 11.04-4.8h48a64 64 0 0 0 57.6-36.16 60.8 60.8 0 0 0 6.24-32 14.08 14.08 0 0 0 0-2.56 52 52 0 0 0-5.44-19.36 65.44 65.44 0 0 0-9.76-14.72l-0.64-1.28a64.8 64.8 0 0 0-12.8-10.88 65.76 65.76 0 0 0-21.44-9.12 69.92 69.92 0 0 0-8-1.44 65.12 65.12 0 0 0-8 0H448a20.32 20.32 0 0 0-4.48 0A112 112 0 0 0 336 688v192a16 16 0 0 0 16 16h334.56a176 176 0 0 0 123.36-50.4l130.4-128a64 64 0 0 0 18.4-44.32 62.08 62.08 0 0 0-15.84-40.8z m-25.12 62.88l-130.24 128A144 144 0 0 1 686.56 864H368V688a80 80 0 0 1 80-80h173.28a35.68 35.68 0 0 1 19.04 5.44 34.72 34.72 0 0 1 7.52 6.24 32 32 0 0 1 5.6 8 24 24 0 0 1 2.4 10.08 30.88 30.88 0 0 1-9.28 24.8A32 32 0 0 1 624 672h-48a46.72 46.72 0 0 0-33.76 14.08 48 48 0 0 0-14.24 38.24A49.44 49.44 0 0 0 577.76 768h163.68a39.04 39.04 0 0 0 34.4-16 73.6 73.6 0 0 1 6.24-6.88l90.24-90.24a33.12 33.12 0 0 1 25.6-10.24 28.8 28.8 0 0 1 20.96 9.6 29.92 29.92 0 0 1 7.84 20.16 30.72 30.72 0 0 1-8.96 20.96zM688 635.52a14.08 14.08 0 0 0 0-2.56q-8.48 1.92-17.28 3.36h-2.56a16 16 0 0 1-14.24-8.8 24 24 0 0 1 2.4 10.08 30.88 30.88 0 0 1-9.28 24.8A32 32 0 0 1 624 672h-48a46.72 46.72 0 0 0-33.76 14.08 48 48 0 0 0-14.24 38.24A49.44 49.44 0 0 0 577.76 768h42.4a16 16 0 0 1-14.72-9.92 16 16 0 0 1 3.36-17.44l4.64-4.64h-35.68a17.12 17.12 0 0 1-17.6-14.72 15.04 15.04 0 0 1 4.8-12.64A14.88 14.88 0 0 1 576 704h48a62.88 62.88 0 0 0 27.84-6.4l29.76-29.76a60.8 60.8 0 0 0 6.4-32.32zM725.44 768h16a39.04 39.04 0 0 0 34.4-16 73.6 73.6 0 0 1 6.24-6.88A80 80 0 0 1 725.44 768zM688 635.52a14.08 14.08 0 0 0 0-2.56q-8.48 1.92-17.28 3.36h-2.56a16 16 0 0 1-14.24-8.8 24 24 0 0 1 2.4 10.08 30.88 30.88 0 0 1-9.28 24.8A32 32 0 0 1 624 672h-48a46.72 46.72 0 0 0-33.76 14.08 48 48 0 0 0-14.24 38.24A49.44 49.44 0 0 0 577.76 768h42.4a16 16 0 0 1-14.72-9.92 16 16 0 0 1 3.36-17.44l4.64-4.64h-35.68a17.12 17.12 0 0 1-17.6-14.72 15.04 15.04 0 0 1 4.8-12.64A14.88 14.88 0 0 1 576 704h48a62.88 62.88 0 0 0 27.84-6.4l29.76-29.76a60.8 60.8 0 0 0 6.4-32.32zM725.44 768h16a39.04 39.04 0 0 0 34.4-16 73.6 73.6 0 0 1 6.24-6.88A80 80 0 0 1 725.44 768zM688 635.52a14.08 14.08 0 0 0 0-2.56q-8.48 1.92-17.28 3.36h-2.56a16 16 0 0 1-14.24-8.8 24 24 0 0 1 2.4 10.08 30.88 30.88 0 0 1-9.28 24.8A32 32 0 0 1 624 672h-48a46.72 46.72 0 0 0-33.76 14.08 48 48 0 0 0-14.24 38.24A49.44 49.44 0 0 0 577.76 768h42.4a16 16 0 0 1-14.72-9.92 16 16 0 0 1 3.36-17.44l4.64-4.64h-35.68a17.12 17.12 0 0 1-17.6-14.72 15.04 15.04 0 0 1 4.8-12.64A14.88 14.88 0 0 1 576 704h48a62.88 62.88 0 0 0 27.84-6.4l29.76-29.76a60.8 60.8 0 0 0 6.4-32.32zM725.44 768h16a39.04 39.04 0 0 0 34.4-16 73.6 73.6 0 0 1 6.24-6.88A80 80 0 0 1 725.44 768zM688 635.52a14.08 14.08 0 0 0 0-2.56q-8.48 1.92-17.28 3.36h-2.56a16 16 0 0 1-14.24-8.8 24 24 0 0 1 2.4 10.08 30.88 30.88 0 0 1-9.28 24.8A32 32 0 0 1 624 672h-48a46.72 46.72 0 0 0-33.76 14.08 48 48 0 0 0-14.24 38.24A49.44 49.44 0 0 0 577.76 768h42.4a16 16 0 0 1-14.72-9.92 16 16 0 0 1 3.36-17.44l4.64-4.64h-35.68a17.12 17.12 0 0 1-17.6-14.72 15.04 15.04 0 0 1 4.8-12.64A14.88 14.88 0 0 1 576 704h48a62.88 62.88 0 0 0 27.84-6.4l29.76-29.76a60.8 60.8 0 0 0 6.4-32.32zM725.44 768h16a39.04 39.04 0 0 0 34.4-16 73.6 73.6 0 0 1 6.24-6.88A80 80 0 0 1 725.44 768zM688 635.52a14.08 14.08 0 0 0 0-2.56q-8.48 1.92-17.28 3.36h-2.56a16 16 0 0 1-14.24-8.8 24 24 0 0 1 2.4 10.08 30.88 30.88 0 0 1-9.28 24.8A32 32 0 0 1 624 672h-48a46.72 46.72 0 0 0-33.76 14.08 48 48 0 0 0-14.24 38.24A49.44 49.44 0 0 0 577.76 768h42.4a16 16 0 0 1-14.72-9.92 16 16 0 0 1 3.36-17.44l4.64-4.64h-35.68a17.12 17.12 0 0 1-17.6-14.72 15.04 15.04 0 0 1 4.8-12.64A14.88 14.88 0 0 1 576 704h48a62.88 62.88 0 0 0 27.84-6.4l29.76-29.76a60.8 60.8 0 0 0 6.4-32.32zM725.44 768h16a39.04 39.04 0 0 0 34.4-16 73.6 73.6 0 0 1 6.24-6.88A80 80 0 0 1 725.44 768zM688 635.52a14.08 14.08 0 0 0 0-2.56q-8.48 1.92-17.28 3.36h-2.56a16 16 0 0 1-14.24-8.8 24 24 0 0 1 2.4 10.08 30.88 30.88 0 0 1-9.28 24.8A32 32 0 0 1 624 672h-48a46.72 46.72 0 0 0-33.76 14.08 48 48 0 0 0-14.24 38.24A49.44 49.44 0 0 0 577.76 768h42.4a16 16 0 0 1-14.72-9.92 16 16 0 0 1 3.36-17.44l4.64-4.64h-35.68a17.12 17.12 0 0 1-17.6-14.72 15.04 15.04 0 0 1 4.8-12.64A14.88 14.88 0 0 1 576 704h48a62.88 62.88 0 0 0 27.84-6.4l29.76-29.76a60.8 60.8 0 0 0 6.4-32.32zM725.44 768h16a39.04 39.04 0 0 0 34.4-16 73.6 73.6 0 0 1 6.24-6.88A80 80 0 0 1 725.44 768zM688 635.52a14.08 14.08 0 0 0 0-2.56q-8.48 1.92-17.28 3.36h-2.56a16 16 0 0 1-14.24-8.8 24 24 0 0 1 2.4 10.08 30.88 30.88 0 0 1-9.28 24.8A32 32 0 0 1 624 672h-48a46.72 46.72 0 0 0-33.76 14.08 48 48 0 0 0-14.24 38.24A49.44 49.44 0 0 0 577.76 768h42.4a16 16 0 0 1-14.72-9.92 16 16 0 0 1 3.36-17.44l4.64-4.64h-35.68a17.12 17.12 0 0 1-17.6-14.72 15.04 15.04 0 0 1 4.8-12.64A14.88 14.88 0 0 1 576 704h48a62.88 62.88 0 0 0 27.84-6.4l29.76-29.76a60.8 60.8 0 0 0 6.4-32.32zM725.44 768h16a39.04 39.04 0 0 0 34.4-16 73.6 73.6 0 0 1 6.24-6.88A80 80 0 0 1 725.44 768z" fill="#231F20" p-id="15125"></path><path d="M864.96 620.32a63.04 63.04 0 0 0-54.4-48h-6.56a62.4 62.4 0 0 0-44.32 18.24l-30.24 30.24-48 48-29.6 28.8-38.4 38.4-4.64 4.64a16 16 0 0 0-3.36 17.44 16 16 0 0 0 14.72 9.92h105.28a80 80 0 0 0 56.64-23.36L848 678.56a64 64 0 0 0 18.4-44.32 57.12 57.12 0 0 0-1.44-13.92z m-105.6 101.6a48 48 0 0 1-33.92 14.08h-66.72l123.52-123.36a29.76 29.76 0 0 1 21.6-8.96 29.92 29.92 0 0 1 21.6 8.96 30.4 30.4 0 0 1 8.96 21.6 30.88 30.88 0 0 1-8.96 21.76z" fill="#231F20" p-id="15126"></path><path d="M64 608h160v336H64z" fill="#231F20" opacity=".5" p-id="15127"></path></svg>