<?xml version="1.0" standalone="no"?><!DOCTYPE svg PUBLIC "-//W3C//DTD SVG 1.1//EN" "http://www.w3.org/Graphics/SVG/1.1/DTD/svg11.dtd"><svg t="1784635785699" class="icon" viewBox="0 0 1297 1024" version="1.1" xmlns="http://www.w3.org/2000/svg" p-id="6710" xmlns:xlink="http://www.w3.org/1999/xlink" width="253.3203125" height="200"><path d="M1275.670812 622.044515h-9.489743a617.228673 617.228673 0 0 0-151.69394-383.908753C1020.400792 130.311604 892.096634 58.520079 751.950574 34.947802A58.134812 58.134812 0 0 0 699.047287 0.719842h-100.352c-23.521584 0-43.788673 14.092673-52.913426 34.258376a615.373307 615.373307 0 0 0-111.261148 29.604752 22.071762 22.071762 0 1 0 15.319445 41.406099 570.479525 570.479525 0 0 1 90.77101-25.224871v367.727525c0 95.698376-77.854416 173.552792-173.542653 173.552792H75.725307c7.685069-199.811802 119.301069-382.215604 295.236436-479.840317a22.071762 22.071762 0 1 0-21.412753-38.597703C159.591921 209.017663 39.236436 406.193426 31.531089 622.044515h-9.449188A22.071762 22.071762 0 0 0 0 644.116277v173.57307c0 12.196752 9.885149 22.081901 22.071762 22.081901h220.170139c17.195089 62.75802 88.844673 150.538139 97.837624 161.396594 3.700594 4.46099 9.023366 7.279525 14.782099 7.867564a2831.309307 2831.309307 0 0 0 283.931881 14.244752c94.86701 0 189.723881-4.744871 283.931881-14.244752a22.051485 22.051485 0 0 0 14.771961-7.867564c9.013228-10.868594 80.652673-98.628436 97.847762-161.406733h240.325703A22.071762 22.071762 0 0 0 1297.742574 817.709624V644.106139a22.061624 22.061624 0 0 0-22.071762-22.071763z m-22.071762 173.573069H955.361584a22.071762 22.071762 0 1 0 0 44.143525h33.781862c-14.295446 37.350653-52.051644 91.551683-79.942971 126.24602a2792.37703 2792.37703 0 0 1-540.824079 0c-27.891327-34.674059-65.657663-88.885228-79.94297-126.24602h587.106851a22.071762 22.071762 0 1 0 0-44.133386H44.153663V666.18804h322.914852c120.041188 0 217.686178-97.665267 217.686178-217.696317V58.814099c0-7.695208 6.255525-13.950733 13.950733-13.950733h100.352c7.695208 0 13.950733 6.255525 13.950732 13.950733v123.24499a22.071762 22.071762 0 1 0 44.133387 0V80.723644c125.22202 23.947406 239.534891 89.52396 324.101069 186.428831a573.105426 573.105426 0 0 1 140.784792 354.89204H930.684198c-95.698376 0-173.552792-77.854416-173.552792-173.542654V261.860119a22.071762 22.071762 0 1 0-44.133386 0v186.621465c0 120.041188 97.655129 217.696317 217.686178 217.696317h322.914852v129.439683z" fill="#000000" p-id="6711"></path><path d="M1132.513584 495.25101m-22.071762 0a22.071762 22.071762 0 1 0 44.143525 0 22.071762 22.071762 0 1 0-44.143525 0Z" fill="#000000" p-id="6712"></path><path d="M1132.513584 573.034455m-22.071762 0a22.071762 22.071762 0 1 0 44.143525 0 22.071762 22.071762 0 1 0-44.143525 0Z" fill="#000000" p-id="6713"></path><path d="M165.198574 495.25101m-22.071762 0a22.071762 22.071762 0 1 0 44.143525 0 22.071762 22.071762 0 1 0-44.143525 0Z" fill="#000000" p-id="6714"></path><path d="M165.198574 573.034455m-22.071762 0a22.071762 22.071762 0 1 0 44.143525 0 22.071762 22.071762 0 1 0-44.143525 0Z" fill="#000000" p-id="6715"></path></svg>