<?xml version="1.0" standalone="no"?><!DOCTYPE svg PUBLIC "-//W3C//DTD SVG 1.1//EN" "http://www.w3.org/Graphics/SVG/1.1/DTD/svg11.dtd"><svg t="1784635875203" class="icon" viewBox="0 0 1029 1024" version="1.1" xmlns="http://www.w3.org/2000/svg" p-id="10927" xmlns:xlink="http://www.w3.org/1999/xlink" width="200.9765625" height="200"><path d="M514.885818 443.345455a76.427636 76.427636 0 1 0 76.474182 76.427636 76.427636 76.427636 0 0 0-76.474182-76.427636z" fill="#B3B3B3" p-id="10928"></path><path d="M1029.538909 479.650909h-95.557818a421.608727 421.608727 0 0 0-384.325818-379.298909V0h-66.746182v100.212364a421.469091 421.469091 0 0 0-387.118546 379.438545H0v66.746182h95.138909a421.143273 421.143273 0 0 0 388.654546 393.029818l-0.93091 83.781818 66.746182 0.791273 0.930909-84.805818a421.329455 421.329455 0 0 0 384.139637-392.843637h94.859636zM551.610182 849.92l0.930909-85.829818-66.746182-0.698182-0.977454 87.179636a332.520727 332.520727 0 0 1-300.776728-304.128h75.869091v-66.746181H185.390545a332.567273 332.567273 0 0 1 297.518546-290.443637v70.749091h66.746182V189.44a332.660364 332.660364 0 0 1 294.772363 290.210909h-74.752v66.746182h76.055273a332.567273 332.567273 0 0 1-294.167273 303.476364z" fill="#B3B3B3" p-id="10929"></path></svg>