<?xml version="1.0" standalone="no"?><!DOCTYPE svg PUBLIC "-//W3C//DTD SVG 1.1//EN" "http://www.w3.org/Graphics/SVG/1.1/DTD/svg11.dtd"><svg t="1784635999684" class="icon" viewBox="0 0 1024 1024" version="1.1" xmlns="http://www.w3.org/2000/svg" p-id="17256" xmlns:xlink="http://www.w3.org/1999/xlink" width="200" height="200"><path d="M877.568 204.8l23.552-23.552 38.912 75.776c1.024 2.048 3.072 3.072 5.12 2.048 1.024 0 1.024-1.024 2.048-2.048l70.656-232.448c3.072-7.168-1.024-15.36-8.192-18.432-3.072-1.024-6.144-1.024-9.216 0L768 77.824c-2.048 1.024-3.072 3.072-2.048 5.12 0 1.024 1.024 2.048 2.048 2.048l75.776 38.912c-1.024 0-23.552 22.528-24.576 24.576L716.8 253.952C457.728 61.44 72.704 133.12 55.296 136.192 21.504 143.36 0 175.104 6.144 208.896s38.912 55.296 72.704 48.128c0 0 24.576-5.12 64.512-8.192l295.936 290.816-105.472 109.568H212.992c-21.504-1.024-39.936 14.336-43.008 34.816-4.096 22.528 11.264 44.032 33.792 47.104 2.048 0 5.12 1.024 7.168 1.024h44.032l-20.48 20.48h-122.88c-20.48-1.024-38.912 13.312-44.032 33.792-4.096 22.528 11.264 44.032 33.792 47.104 2.048 0 5.12 1.024 7.168 1.024h102.4v100.352c0 20.48 14.336 38.912 33.792 43.008 22.528 4.096 44.032-11.264 47.104-33.792 0-2.048 1.024-5.12 1.024-7.168V808.96l20.48-20.48v44.032c0 20.48 14.336 38.912 33.792 43.008 22.528 4.096 44.032-11.264 47.104-33.792 0-2.048 1.024-5.12 1.024-7.168V703.488l101.376-105.472 315.392 311.296c-1.024 11.264-3.072 21.504-4.096 32.768-2.048 14.336 0 29.696 6.144 43.008 10.24 20.48 30.72 33.792 54.272 33.792 30.72 0 57.344-21.504 61.44-52.224 44.032-291.84-6.144-514.048-150.528-659.456l98.304-102.4z m-622.592 38.912c112.64 1.024 259.072 20.48 374.784 99.328L495.616 481.28 254.976 243.712z m566.272 558.08l-266.24-262.144 138.24-143.36c90.112 92.16 134.144 228.352 128 405.504z" p-id="17257"></path></svg>