<?xml version="1.0" standalone="no"?><!DOCTYPE svg PUBLIC "-//W3C//DTD SVG 1.1//EN" "http://www.w3.org/Graphics/SVG/1.1/DTD/svg11.dtd"><svg t="1784636100575" class="icon" viewBox="0 0 1024 1024" version="1.1" xmlns="http://www.w3.org/2000/svg" p-id="25182" xmlns:xlink="http://www.w3.org/1999/xlink" width="200" height="200"><path d="M800 320h-64V256A127.914667 127.914667 0 0 0 512 171.477333a127.914667 127.914667 0 0 0-223.146667 70.229334A127.914667 127.914667 0 0 0 96 352V512a416 416 0 0 0 832 0v-64a128.128 128.128 0 0 0-128-128z m-192-128a64.085333 64.085333 0 0 1 64 64v64h-128V256a64.085333 64.085333 0 0 1 64-64z m-256 64a64 64 0 0 1 128 0v160a64 64 0 1 1-128 0V256z m-192 96a64 64 0 1 1 128 0v64a64 64 0 0 1-128 0v-64z m352 512a352.426667 352.426667 0 0 1-351.701333-336.981333 127.786667 127.786667 0 0 0 159.701333-26.453334 127.701333 127.701333 0 0 0 178.346667 13.354667c11.52 19.072 27.733333 34.816 47.146666 45.738667A191.658667 191.658667 0 0 0 480 704a32 32 0 0 0 64 0 128.128 128.128 0 0 1 128-128 32 32 0 0 0 0-64h-64a64.085333 64.085333 0 0 1-64-64V384h256a64.085333 64.085333 0 0 1 64 64V512A352.426667 352.426667 0 0 1 512 864z" p-id="25183"></path></svg>