<?xml version="1.0" standalone="no"?><!DOCTYPE svg PUBLIC "-//W3C//DTD SVG 1.1//EN" "http://www.w3.org/Graphics/SVG/1.1/DTD/svg11.dtd"><svg t="1784635983651" class="icon" viewBox="0 0 1024 1024" version="1.1" xmlns="http://www.w3.org/2000/svg" p-id="16256" xmlns:xlink="http://www.w3.org/1999/xlink" width="200" height="200"><path d="M1024 320c0-53.333333-42.666667-96-96-96S832 266.666667 832 320c0 14.933333 4.266667 29.866667 10.666667 42.666667l-83.2 83.2-132.266667-132.266667c8.533333-17.066667 12.8-36.266667 12.8-57.6 0-70.4-57.6-128-128-128s-128 57.6-128 128c0 21.333333 4.266667 40.533333 12.8 57.6l-132.266667 132.266667L181.333333 362.666667c6.4-12.8 10.666667-27.733333 10.666667-42.666667 0-53.333333-42.666667-96-96-96S0 266.666667 0 320c0 42.666667 27.733333 76.8 64 89.6v454.4c0 17.066667 14.933333 32 32 32h832c17.066667 0 32-14.933333 32-32V409.6c36.266667-12.8 64-46.933333 64-89.6zM512 192c36.266667 0 64 27.733333 64 64s-27.733333 64-64 64-64-27.733333-64-64 27.733333-64 64-64zM264.533333 522.666667c8.533333 0 17.066667-4.266667 23.466667-8.533334l151.466667-151.466666c21.333333 14.933333 44.8 21.333333 72.533333 21.333333 25.6 0 51.2-8.533333 72.533333-21.333333l151.466667 151.466666c6.4 6.4 14.933333 8.533333 23.466667 8.533334s17.066667-2.133333 23.466666-8.533334l106.666667-106.666666c2.133333 2.133333 4.266667 2.133333 8.533333 2.133333V704H128V409.6c2.133333 0 4.266667-2.133333 8.533333-2.133333l106.666667 106.666666c6.4 6.4 12.8 8.533333 21.333333 8.533334z m-168.533333-234.666667c17.066667 0 32 14.933333 32 32 0 8.533333-4.266667 17.066667-8.533333 21.333333 0 0-2.133333 0-2.133334 2.133334-6.4 4.266667-12.8 8.533333-21.333333 8.533333-17.066667 0-32-14.933333-32-32s14.933333-32 32-32zM128 832v-64h768v64H128z m800-480c-17.066667 0-32-14.933333-32-32s14.933333-32 32-32 32 14.933333 32 32-14.933333 32-32 32z" fill="#212121" p-id="16257"></path></svg>