<?xml version="1.0" standalone="no"?><!DOCTYPE svg PUBLIC "-//W3C//DTD SVG 1.1//EN" "http://www.w3.org/Graphics/SVG/1.1/DTD/svg11.dtd"><svg t="1784636040000" class="icon" viewBox="0 0 1024 1024" version="1.1" xmlns="http://www.w3.org/2000/svg" p-id="20313" xmlns:xlink="http://www.w3.org/1999/xlink" width="200" height="200"><path d="M512 768a256 256 0 1 0 0-512 256 256 0 0 0 0 512z m0 64a320 320 0 1 1 0-640 320 320 0 0 1 0 640zM512 341.333333a32 32 0 0 1 32 32v149.333334a32 32 0 0 1-64 0v-149.333334A32 32 0 0 1 512 341.333333z m0 277.333334a32 32 0 1 1 0 64 32 32 0 0 1 0-64z" fill="#000000" p-id="20314"></path></svg>