<?xml version="1.0" standalone="no"?><!DOCTYPE svg PUBLIC "-//W3C//DTD SVG 1.1//EN" "http://www.w3.org/Graphics/SVG/1.1/DTD/svg11.dtd"><svg t="1784635920058" class="icon" viewBox="0 0 1024 1024" version="1.1" xmlns="http://www.w3.org/2000/svg" p-id="13207" xmlns:xlink="http://www.w3.org/1999/xlink" width="200" height="200"><path d="M804.40301764 640.01724118l-130.92672437-274.94612018c-20.366379-43.64224118-53.8254311-119.28879327-93.10344873-161.47629327-2.90948237-2.90948237-4.36422437-5.81896554-7.27370672-7.27370673-74.19181009-81.46551764-234.21336218-117.8340521-286.58405128-71.28232772-50.9159479 45.09698236-33.4590521 203.66379327 36.36853446 288.03879326 26.18534454 32.00431009 53.8254311 68.37284454 87.28448237 93.10344792l98.92241426 71.28232772c-10.18318991 2.90948237-20.366379 7.27370673-30.54956973 10.18318992l-91.64870672 29.0948269-91.64870672 30.5495689-62.553879 20.36637983c-17.45689663 5.81896554-29.09482773 27.64008654-5.81896555 40.73275881l50.91594791 29.09482692c27.64008654 16.00215546 53.8254311 32.00431009 81.46551765 46.55172436l81.4655168 46.55172436c55.28017227 30.5495689 109.10560337 59.64439663 165.84051764 90.19396555 2.90948237 1.45474118 7.27370673 1.45474118 10.18318909-1.45474119 2.90948237-2.90948237 2.90948237-8.7284479 0-13.09267308l-139.65517228-126.5625-53.82543109-49.46120673 85.829742-13.09267227c32.00431009-4.36422437 62.553879-10.18318991 94.55818909-14.54741346l96.0129311-11.63793109 85.82974118-10.18318991c27.64008654-2.90948237 29.09482773-18.91163782 18.91163863-40.73275882zM538.18534454 472.72198236L395.62068991 362.16163782c-18.91163782-16.00215546-17.45689663-17.45689663-34.91379328-40.73275882-29.09482773-37.82327563-37.82327563-109.10560337-13.09267226-130.92672354s93.1034479-2.90948237 128.01724117 29.09482691c20.366379 18.91163782 33.4590521 39.27801764 39.27801683 50.91594873l64.008621 120.74353444-90.19396555-39.27801764 49.46120672 120.74353446z" p-id="13208"></path></svg>