<?xml version="1.0" standalone="no"?><!DOCTYPE svg PUBLIC "-//W3C//DTD SVG 1.1//EN" "http://www.w3.org/Graphics/SVG/1.1/DTD/svg11.dtd"><svg t="1784638851268" class="icon" viewBox="0 0 1024 1024" version="1.1" xmlns="http://www.w3.org/2000/svg" p-id="26241" xmlns:xlink="http://www.w3.org/1999/xlink" width="200" height="200"><path d="M960 546.133l2.133-4.266L755.2 450.133c0-2.133 2.133-6.4 2.133-8.533V194.133c0-8.533-4.266-14.933-8.533-19.2V166.4L516.267 66.133l-232.534 102.4 2.134 4.267c-6.4 6.4-8.534 12.8-8.534 21.333v258.134L70.4 541.867l2.133 4.266c-4.266 6.4-8.533 12.8-8.533 21.334V825.6c0 10.667 6.4 19.2 14.933 23.467l213.334 106.666c4.266 2.134 8.533 2.134 12.8 2.134 4.266 0 10.666-2.134 14.933-4.267 6.4-4.267 8.533-8.533 10.667-14.933l179.2-89.6L718.933 953.6c4.267 2.133 8.534 2.133 12.8 2.133 4.267 0 10.667-2.133 14.934-4.266 6.4-4.267 8.533-8.534 10.666-14.934l200.534-100.266C966.4 832 972.8 823.467 972.8 812.8V567.467c-4.267-8.534-6.4-14.934-12.8-21.334zM490.667 797.867l-160 78.933V680.533l160-72.533v189.867z m-160-563.2l160 72.533v206.933l-160-78.933V234.667zM544 309.333l160-74.666v192L544 505.6V309.333zM669.867 192L518.4 262.4 364.8 192l151.467-66.133L669.867 192zM277.333 887.467l-160-78.934v-198.4l160 72.534v204.8zM151.467 565.333L302.933 499.2 454.4 565.333l-151.467 70.4-151.466-70.4zM704 887.467l-160-78.934v-198.4l160 72.534v204.8zM578.133 565.333L729.6 499.2l151.467 66.133-151.467 70.4-151.467-70.4zM915.2 797.867l-160 78.933V680.533L915.2 608v189.867z" fill="#407ABD" p-id="26242"></path></svg>